<svg class="img-fluid" id="outputsvg" xmlns="http://www.w3.org/2000/svg" style="transform: matrix(1.3, 0, 0, 1.3, 0, 0); transform-origin: 50% 50%; cursor: move; transition: transform 200ms ease-in-out;" width="1024" height="1024" viewBox="0 0 10240 10240"><g id="l4Yhb9eiX6PmDakicRXFUtc" fill="rgb(246,229,206)" style="transform: none;"><g style="transform: none;"><path id="p9uwMxIdj" d="M5203 7620 c-53 -11 -113 -42 -157 -80 -30 -27 -35 -29 -39 -13 -3 10 -5 3 -6 -14 l-1 -33 260 0 260 0 0 25 c0 18 -5 25 -18 25 -10 0 -29 11 -41 24 -49 52 -172 83 -258 66z"></path></g></g><g id="l3TVIGPyF7Hll0G57WAEMST" fill="rgb(218,179,135)" style="transform: none;"><g style="transform: none;"><path id="pTKD0Jvjv" d="M5524 7545 c4 -11 -2 -15 -20 -15 -15 0 -23 -4 -19 -10 5 -7 -71 -10 -234 -10 -207 1 -241 3 -241 16 0 13 -28 15 -217 10 -120 -3 -251 -8 -291 -12 l-74 -6 -53 -81 c-201 -310 -228 -710 -71 -1043 63 -132 116 -206 225 -314 132 -129 262 -205 431 -250 52 -14 66 -22 68 -39 3 -21 6 -21 228 -21 213 0 224 1 224 19 0 15 12 22 53 31 188 44 381 164 517 321 174 202 260 437 260 708 0 237 -57 429 -181 613 l-39 56 -67 6 c-38 4 -151 9 -253 12 -102 3 -189 10 -194 15 -6 5 -21 9 -34 9 -17 0 -23 -4 -18 -15z"></path></g></g><g id="l34SPfmw4PDjVUHRbvMuMTi" fill="rgb(141,107,79)" style="transform: none;"><g style="transform: none;"><path id="ptxUbHfpp" d="M2692 9165 c-235 -43 -444 -154 -608 -323 -128 -132 -231 -313 -282 -499 l-27 -98 -3 -1770 c-2 -1271 0 -1796 8 -1863 24 -197 91 -373 191 -505 55 -73 275 -301 1044 -1084 275 -279 757 -771 1070 -1092 314 -321 599 -605 635 -632 85 -65 204 -122 310 -150 67 -18 114 -22 225 -23 150 -1 199 9 338 65 162 67 175 79 1738 1679 1250 1280 1277 1308 1319 1362 96 120 91 287 -12 385 -98 94 -262 101 -377 16 -21 -16 -156 -152 -301 -303 -402 -419 -1120 -1160 -2018 -2082 -375 -386 -504 -512 -540 -530 -39 -19 -63 -23 -142 -23 -156 0 -146 -8 -581 438 -205 210 -782 799 -1282 1308 -499 509 -924 948 -944 975 -51 70 -90 157 -110 244 -17 70 -18 182 -18 1745 0 1588 1 1673 18 1735 67 238 217 391 447 456 62 18 172 19 2475 24 l2410 5 47 23 c181 89 211 334 57 466 -84 72 135 66 -2573 65 -1973 -1 -2455 -3 -2514 -14z"></path></g></g><g id="lAfQjLAMHbciqjsWnzxqTv" fill="rgb(132,99,70)" style="transform: none;"><g style="transform: none;"><path id="pq6IuRjK0" d="M5036 5755 c8 -62 14 -75 58 -113 23 -20 51 -33 82 -38 33 -5 48 -12 51 -25 6 -21 43 -26 43 -6 0 8 24 18 60 25 96 20 150 85 150 181 l0 26 -226 0 -225 0 7 -50z"></path></g></g><g id="lE7TtQjYCKC02SZKYotRbN" fill="rgb(118,85,55)" style="transform: none;"><g style="transform: none;"><path id="p7WtzmLna" d="M4775 7549 c-166 -11 -217 -18 -210 -30 4 -5 100 -9 226 -9 l220 0 -3 23 c-3 19 -9 22 -53 23 -27 1 -108 -2 -180 -7z"></path><path id="pfIzEn5ZP" d="M5520 7552 c0 -5 8 -16 18 -25 16 -15 47 -17 220 -17 114 0 203 4 207 9 7 13 -45 19 -245 31 -201 12 -200 12 -200 2z"></path></g></g><g id="l6Hzua5sDqWrmFrrgkpV9nE" fill="#574332ff" style="transform: none;"><g style="transform: none;"><path id="p120hDz3U" d="M5228 3692 c2 -1805 3 -1903 20 -1900 17 3 20 552 22 3765 0 27 4 32 28 36 15 2 5 3 -23 3 l-50 -1 3 -1903z"></path></g></g></svg>