<svg class="img-fluid" id="outputsvg" xmlns="http://www.w3.org/2000/svg" style="transform: matrix(1.3, 0, 0, 1.3, 2.91033, -0.0683); transform-origin: 50% 50%; cursor: move; transition: none;" width="1024" height="1024" viewBox="0 0 10240 10240"><g id="l77SrzlSKAImEUOFJymneXO" fill="rgb(112,83,61)" style="transform: none;"><g style="transform: none;"><path id="pmEe8Fg44" d="M1795 7475 c-22 -8 -41 -15 -42 -15 -2 0 -3 -8 -3 -19 0 -17 7 -18 78 -16 63 2 78 6 80 20 2 9 0 21 -5 25 -17 16 -70 19 -108 5z"></path><path id="p8ipTTnWr" d="M2553 7480 c-14 -6 -23 -18 -23 -31 0 -20 4 -21 41 -16 35 5 45 2 64 -19 25 -27 65 -32 65 -8 0 29 -21 56 -55 70 -39 16 -60 17 -92 4z"></path><path id="pqBUVBpDO" d="M5600 7481 c-27 -8 -39 -39 -19 -51 7 -5 22 -5 33 -1 12 5 38 6 59 3 32 -4 37 -2 37 16 0 12 -3 23 -8 26 -16 9 -78 14 -102 7z"></path><path id="p188C3fOnC" d="M2110 7325 c0 -118 1 -125 20 -125 17 0 20 7 20 45 0 25 5 45 10 45 6 0 10 29 10 66 0 67 -13 94 -44 94 -14 0 -16 -18 -16 -125z"></path><path id="pK5AJbcLJ" d="M2900 7330 c0 -73 2 -80 20 -80 18 0 20 7 20 80 0 73 -2 80 -20 80 -18 0 -20 -7 -20 -80z"></path><path id="p1BbGX2rTa" d="M4330 7295 l0 -105 35 0 c24 0 35 5 35 15 0 8 -7 15 -15 15 -12 0 -15 17 -15 90 0 83 -1 90 -20 90 -19 0 -20 -7 -20 -105z"></path><path id="prAUXE4Gg" d="M7020 7269 c0 -72 12 -99 44 -99 12 0 16 11 16 50 0 28 -4 50 -10 50 -5 0 -10 16 -10 35 0 28 -4 35 -20 35 -18 0 -20 -7 -20 -71z"></path><path id="pqZTZjI0L" d="M8553 7251 c-19 -31 -78 -43 -120 -26 l-34 14 3 -32 3 -32 63 -3 c82 -4 112 13 112 63 0 39 -9 44 -27 16z"></path><path id="pqNMbc1nV" d="M1486 7231 c-9 -14 -58 -20 -83 -10 -21 8 -23 6 -23 -21 0 -30 1 -30 54 -30 73 0 86 6 86 41 0 28 -22 41 -34 20z"></path><path id="p1GFHVmjsX" d="M7189 6900 c-192 -30 -353 -149 -440 -325 -54 -110 -72 -202 -66 -340 10 -234 109 -410 292 -520 79 -47 160 -71 270 -80 184 -14 351 50 473 179 119 128 174 271 174 451 1 294 -159 529 -413 610 -89 28 -207 38 -290 25z m234 -250 c203 -76 293 -351 188 -576 -39 -84 -91 -138 -169 -176 -60 -30 -76 -33 -152 -33 -71 0 -95 5 -142 27 -79 37 -121 71 -159 129 -119 185 -81 466 79 582 46 33 111 61 162 71 46 8 137 -3 193 -24z"></path><path id="pgcKrDz69" d="M7228 6375 c-64 -36 -77 -123 -27 -180 28 -31 36 -35 81 -35 60 0 83 11 103 50 42 80 -1 168 -85 176 -29 3 -55 -1 -72 -11z"></path><path id="pHFp8Nqeb" d="M1010 6531 l0 -370 248 -3 c220 -3 251 -5 286 -22 97 -48 102 -180 10 -237 -38 -23 -45 -24 -297 -27 l-258 -3 3 -117 3 -117 230 -3 c239 -3 305 3 402 40 71 26 155 104 190 176 26 52 28 67 28 167 0 100 -3 115 -28 166 -15 31 -47 75 -71 97 -88 81 -178 110 -373 119 l-133 6 0 249 0 248 -120 0 -120 0 0 -369z"></path><path id="pwtQsLcpy" d="M1902 6265 l3 -635 303 0 302 0 0 120 0 120 -180 0 -180 0 0 145 0 145 255 0 255 0 0 110 0 110 -252 2 -253 3 -3 143 -3 142 181 0 180 0 0 115 0 115 -305 0 -306 0 3 -635z"></path><path id="p1C1S47Ft" d="M3394 6714 c-362 -521 -411 -589 -433 -592 -21 -3 -21 -3 -21 237 l0 241 -120 0 -120 0 0 -485 0 -486 117 3 117 3 53 75 c29 41 160 227 291 413 l237 338 3 -416 2 -416 123 3 122 3 3 633 2 632 -123 0 -124 0 -129 -186z"></path><path id="pRwAi4Sdq" d="M4080 6500 l0 -400 120 0 120 0 0 400 0 400 -120 0 -120 0 0 -400z"></path><path id="pe7Al2vqZ" d="M4620 6895 c0 -4 106 -280 387 -1008 69 -178 100 -247 110 -245 15 3 266 629 477 1191 l25 68 -126 -3 -125 -3 -65 -180 c-36 -99 -89 -247 -118 -330 -30 -85 -59 -151 -66 -153 -9 -2 -25 30 -48 95 -19 54 -72 205 -119 336 l-86 237 -123 0 c-68 0 -123 -2 -123 -5z"></path><path id="piiufMdkQ" d="M6169 6885 c-94 -19 -201 -58 -258 -94 -195 -125 -289 -390 -236 -668 22 -119 80 -226 163 -304 81 -77 138 -109 257 -145 83 -25 107 -27 313 -32 l222 -4 0 116 0 116 -173 0 c-95 0 -200 5 -233 11 -83 15 -175 61 -219 110 -62 69 -88 138 -93 250 -8 177 51 300 176 367 68 37 170 62 250 62 l52 0 0 -160 0 -160 -125 0 -126 0 3 -117 3 -118 243 -3 242 -2 0 395 0 395 -197 -1 c-119 -1 -224 -6 -264 -14z"></path><path id="pGloX8lop" d="M8504 6500 c-153 -220 -285 -400 -291 -400 -10 0 -13 57 -13 250 l0 250 -120 0 -120 0 0 -485 0 -486 117 3 116 3 136 195 c76 107 208 296 294 418 l157 224 0 -421 0 -421 120 0 120 0 0 635 0 635 -118 0 -119 0 -279 -400z"></path><path id="p1D78F6JVw" d="M3827 5853 c-4 -3 -7 -52 -7 -109 0 -97 1 -102 23 -108 12 -3 183 -6 380 -6 l357 0 0 115 0 115 -373 0 c-206 0 -377 -3 -380 -7z"></path><path id="pBAUJTMdX" d="M4020 5109 c-230 -33 -396 -206 -420 -436 -13 -117 -13 -1345 0 -1453 7 -60 19 -103 41 -148 34 -69 53 -89 767 -819 447 -457 446 -456 599 -468 94 -8 166 5 228 40 22 13 137 121 256 242 508 514 936 958 962 995 50 75 29 181 -44 220 -43 23 -105 23 -146 1 -17 -10 -170 -162 -339 -338 -527 -546 -826 -850 -841 -853 -10 -3 -13 12 -13 62 l0 66 -30 0 -30 0 0 -65 c0 -39 -4 -65 -11 -65 -13 0 -46 34 -595 598 -252 260 -469 490 -482 511 l-22 38 -1 711 -1 711 22 46 c14 29 38 56 63 73 l41 27 1005 5 c769 4 1011 8 1027 17 122 70 102 246 -31 282 -48 13 -1918 13 -2005 0z"></path><path id="pNzkuRBZQ" d="M5077 3683 c-4 -3 -7 -22 -7 -41 0 -32 2 -34 27 -27 37 9 50 21 56 50 4 23 1 25 -33 25 -20 0 -40 -3 -43 -7z"></path><path id="p3mz30hdt" d="M5010 2465 c0 -178 1 -185 20 -185 19 0 20 7 20 185 0 178 -1 185 -20 185 -19 0 -20 -7 -20 -185z"></path></g></g><g id="l5zrBeGOe5x73gAlN2DdkRE" fill="rgb(205,174,151)" style="transform: none;"><g style="transform: none;"><path id="pbZxg1ioT" d="M8170 7325 c0 -148 1 -155 20 -155 19 0 20 7 20 155 0 148 -1 155 -20 155 -19 0 -20 -7 -20 -155z"></path><path id="pfaaXzofh" d="M3488 7288 c-2 -62 -3 -114 -3 -115 0 0 9 -3 20 -5 19 -3 20 3 22 115 1 107 0 117 -17 117 -16 0 -19 -11 -22 -112z"></path><path id="pfoa8V3p1" d="M4310 7280 c0 -47 -3 -60 -15 -60 -8 0 -15 -7 -15 -15 0 -10 11 -15 35 -15 l35 0 0 75 c0 68 -2 75 -20 75 -18 0 -20 -7 -20 -60z"></path><path id="pjpct79bo" d="M7532 7253 l3 -68 38 -3 c31 -3 37 0 37 16 0 11 -9 22 -20 25 -15 4 -20 14 -20 41 0 20 5 36 10 36 6 0 10 5 10 10 0 6 -14 10 -30 10 l-31 0 3 -67z"></path><path id="pmzvf3E5H" d="M1244 6630 c0 -118 2 -167 3 -107 2 59 2 155 0 215 -1 59 -3 10 -3 -108z"></path><path id="pYh7DJKsq" d="M3764 6135 c0 -132 2 -185 3 -117 2 68 2 176 0 240 -1 64 -3 9 -3 -123z"></path><path id="pCnq7Q1UP" d="M1005 5753 l0 -118 245 0 245 -1 -242 3 -242 3 -4 115 -3 115 1 -117z"></path><path id="py3jy7KvU" d="M1900 5695 l0 -65 308 2 307 2 -295 6 c-162 3 -296 7 -297 8 -2 1 -3 27 -3 57 0 30 -4 55 -10 55 -6 0 -10 -28 -10 -65z"></path><path id="pZs7hQooS" d="M3523 5680 c0 -30 2 -43 4 -27 2 15 2 39 0 55 -2 15 -4 2 -4 -28z"></path><path id="pw5Kcmxpg" d="M4686 4409 c-69 -60 -114 -206 -101 -323 13 -118 62 -213 154 -299 50 -47 139 -97 174 -97 10 0 17 -8 17 -21 0 -19 5 -20 109 -18 90 2 110 5 114 18 2 9 27 24 55 34 111 38 215 143 263 264 19 48 23 77 23 168 0 130 -22 201 -83 266 l-38 39 -326 0 -326 0 -35 -31z"></path><path id="pJxzkzwdx" d="M3893 4355 c0 -27 2 -38 4 -22 2 15 2 37 0 50 -2 12 -4 0 -4 -28z"></path></g></g><g id="l665cw6RFQxCxC7XJTyvd1" fill="rgb(100,72,52)" style="transform: none;"><g style="transform: none;"><path id="pTOn8740Q" d="M1390 7478 c-71 -20 -110 -78 -110 -164 0 -54 2 -59 44 -100 42 -43 45 -44 109 -44 60 0 70 3 102 31 41 36 47 69 12 69 -13 0 -34 -11 -46 -24 -48 -51 -130 -35 -157 30 -21 51 -11 96 28 129 27 23 39 26 75 22 24 -2 52 -12 62 -21 18 -16 61 -22 61 -8 0 16 -32 53 -58 66 -41 20 -83 26 -122 14z m98 -280 c-5 -15 -78 -24 -78 -9 0 5 15 12 33 14 17 2 36 5 40 5 5 1 7 -4 5 -10z"></path><path id="pmm64Bgyd" d="M1797 7476 c-131 -47 -157 -208 -47 -283 26 -18 47 -23 96 -23 59 0 66 2 103 38 121 115 3 324 -152 268z m79 -15 c-3 -4 -26 -8 -51 -8 -29 0 -42 3 -33 8 17 11 91 11 84 0z m35 -60 c24 -24 29 -38 29 -75 0 -65 -39 -108 -99 -110 -36 -1 -47 4 -72 32 -64 71 -19 182 73 182 30 0 46 -7 69 -29z"></path><path id="phuQIz2D0" d="M2550 7479 c-31 -13 -70 -48 -70 -65 0 -24 42 -28 59 -6 9 11 32 23 51 28 l35 7 -35 11 -35 11 44 3 c30 2 49 -2 62 -14 23 -21 15 -38 -12 -24 -21 12 -24 7 -9 -19 14 -26 -6 -46 -66 -65 -29 -9 -60 -26 -70 -37 -26 -29 -23 -83 6 -114 20 -21 32 -25 82 -25 58 0 58 0 58 30 0 34 -2 35 -30 18 -29 -19 -75 1 -75 32 0 20 10 27 60 47 70 27 95 53 95 99 0 67 -79 111 -150 83z"></path><path id="ppmye4HZ8" d="M3553 7479 c-17 -5 -43 -23 -57 -40 -25 -29 -26 -36 -26 -150 l0 -119 24 0 c24 0 24 1 28 116 3 131 13 147 78 142 49 -4 60 -31 60 -155 l0 -103 25 0 25 0 0 118 c0 139 -14 174 -77 191 -21 6 -40 11 -43 10 -3 0 -19 -5 -37 -10z"></path><path id="pupyK4XjU" d="M3935 7479 c-17 -4 -46 -24 -65 -44 -29 -30 -34 -43 -38 -97 -5 -73 14 -117 63 -148 41 -25 135 -27 175 -4 29 18 64 67 53 78 -13 13 -53 5 -63 -13 -5 -11 -25 -24 -44 -31 -105 -34 -178 100 -99 182 34 35 95 39 129 7 15 -14 32 -19 55 -17 l33 3 -33 37 c-44 51 -100 67 -166 47z"></path><path id="po7DL1kXB" d="M4837 7476 c-79 -29 -111 -81 -105 -169 4 -55 8 -63 46 -98 39 -37 44 -39 107 -39 63 0 68 2 107 39 39 36 42 42 46 102 3 55 0 69 -20 98 -47 68 -111 92 -181 67z m113 -73 c62 -56 43 -157 -33 -182 -109 -36 -184 109 -96 183 42 35 89 35 129 -1z"></path><path id="pZk3Mk3Zi" d="M5605 7483 c-29 -8 -65 -33 -76 -54 -8 -16 -5 -21 17 -31 22 -10 27 -10 36 6 21 38 92 42 103 4 9 -27 -9 -44 -64 -63 -65 -21 -91 -47 -91 -91 0 -56 36 -84 105 -84 48 0 60 4 80 26 14 15 25 33 25 40 0 22 -53 17 -68 -6 -13 -22 -43 -26 -73 -10 -40 22 -15 55 63 84 86 32 111 91 61 145 -28 30 -78 45 -118 34z m53 -24 c-18 -7 -33 -7 -45 0 -14 8 -9 10 27 10 42 -1 43 -1 18 -10z"></path><path id="pghRPPBgW" d="M6114 7476 c-68 -30 -85 -106 -35 -156 18 -19 25 -33 20 -42 -14 -21 -10 -62 7 -86 12 -18 25 -22 64 -22 55 0 80 18 80 56 0 31 -25 32 -50 2 -15 -18 -22 -21 -36 -12 -31 18 -26 30 31 90 l56 59 15 -22 c9 -13 27 -23 40 -23 29 0 29 1 5 48 l-19 37 30 35 29 35 -32 3 c-19 2 -38 -3 -47 -11 -13 -13 -19 -13 -56 4 -49 22 -61 23 -102 5z m85 -53 l22 -18 -41 -40 -40 -39 -21 21 c-51 51 24 121 80 76z"></path><path id="pp1aC9y3b" d="M8427 7475 c-72 -25 -107 -75 -107 -150 0 -55 18 -93 60 -129 26 -22 41 -26 92 -26 73 0 118 24 142 74 21 45 21 130 -1 168 -35 59 -119 88 -186 63z m116 -73 c38 -39 43 -80 19 -136 -12 -25 -18 -46 -15 -46 3 0 -2 -9 -12 -20 -14 -16 -29 -20 -59 -18 -39 3 -65 28 -29 28 11 0 5 7 -17 18 -45 22 -66 78 -50 128 25 74 112 99 163 46z"></path><path id="pzdPPmfHF" d="M9133 7471 c-44 -20 -65 -57 -42 -72 21 -13 36 -11 43 6 9 23 52 36 82 25 20 -8 25 -16 22 -37 -2 -22 -12 -29 -57 -45 -65 -21 -88 -40 -96 -78 -7 -32 15 -84 40 -94 9 -3 39 -6 66 -6 40 0 55 5 75 25 44 45 4 77 -42 34 -20 -19 -29 -21 -52 -13 -19 7 -27 16 -27 34 0 21 9 28 54 46 65 26 88 45 97 79 20 78 -78 135 -163 96z"></path><path id="pButAs1Pv" d="M2116 7328 l1 -153 24 -3 c21 -2 34 11 87 87 35 50 67 93 72 96 6 4 10 -30 10 -89 0 -95 0 -96 25 -96 l24 0 3 155 3 155 -25 0 c-20 -1 -37 -19 -89 -95 -36 -52 -68 -95 -72 -95 -14 0 -20 54 -13 121 l7 69 -29 0 -29 0 1 -152z"></path><path id="pf7PGl8G0" d="M2880 7350 l0 -130 -40 0 c-36 0 -40 -2 -40 -25 l0 -25 115 0 115 0 0 25 c0 23 -4 25 -44 25 l-43 0 -7 49 c-4 28 -4 86 0 130 l7 81 -32 0 -31 0 0 -130z"></path><path id="pNxoSunSn" d="M3130 7325 l0 -155 81 0 c76 0 82 2 110 29 22 23 29 39 29 68 0 38 -27 83 -50 83 -17 0 -11 18 20 68 17 27 30 52 30 56 0 3 -13 6 -29 6 -25 0 -34 -8 -60 -54 -27 -46 -47 -66 -67 -66 -2 0 -4 27 -4 60 l0 60 -30 0 -30 0 0 -155z m160 -40 c4 -11 4 -30 -1 -42 -7 -20 -16 -23 -59 -23 -54 0 -55 2 -44 59 6 31 8 32 52 29 34 -2 47 -8 52 -23z"></path><path id="pXrRsbsJz" d="M4313 7350 l7 -130 -45 0 c-41 0 -45 -2 -45 -25 l0 -25 115 0 115 0 0 25 c0 23 -3 25 -51 25 l-52 0 7 130 7 130 -32 0 -32 0 6 -130z"></path><path id="p10Fd4ajdz" d="M4560 7325 l0 -155 31 0 32 0 -7 92 c-3 50 -6 120 -6 155 0 61 -1 63 -25 63 l-25 0 0 -155z"></path><path id="pOCydkLTz" d="M5160 7325 l0 -155 25 0 c20 0 38 19 91 95 37 52 71 95 76 95 4 0 8 -43 8 -95 0 -95 0 -95 25 -95 l25 0 0 155 0 155 -23 0 c-18 0 -39 -22 -93 -100 -38 -55 -72 -100 -76 -100 -5 0 -8 45 -8 100 l0 100 -25 0 -25 0 0 -155z"></path><path id="pz6zd9TN9" d="M6642 7328 l3 -153 28 -3 27 -3 0 155 0 156 -30 0 -31 0 3 -152z"></path><path id="p17yOpQa7K" d="M6830 7325 l0 -155 24 0 c20 0 38 20 92 97 l68 98 9 -40 c5 -22 6 -66 2 -97 -6 -56 -5 -58 18 -58 22 0 25 5 31 53 3 28 6 98 6 155 l0 103 -27 -3 c-21 -2 -39 -23 -90 -98 -35 -52 -68 -96 -73 -98 -6 -2 -10 38 -10 97 l0 101 -25 0 -25 0 0 -155z"></path><path id="pD0BaXnHT" d="M7260 7350 l0 -130 -41 0 c-36 0 -40 -2 -37 -22 3 -22 8 -23 111 -26 l107 -3 0 26 c0 23 -4 25 -40 25 l-40 0 0 130 0 130 -30 0 -30 0 0 -130z"></path><path id="pDNxqhLNH" d="M7510 7325 l0 -155 90 0 c90 0 90 0 90 26 0 25 -1 25 -62 23 l-63 -3 0 40 0 39 58 3 c53 3 57 5 57 27 0 24 -3 25 -60 25 l-60 0 0 40 0 40 65 0 c63 0 65 1 65 25 0 25 -1 25 -90 25 l-90 0 0 -155z"></path><path id="p108sqcPIY" d="M7810 7325 l0 -155 80 0 c72 0 84 3 105 24 13 13 27 36 31 51 8 34 -19 95 -46 102 -11 3 -20 7 -20 10 0 2 16 29 35 59 19 30 35 57 35 59 0 3 -13 5 -30 5 -26 0 -34 -8 -61 -55 -17 -30 -35 -55 -39 -55 -31 0 -40 14 -40 61 0 46 -2 49 -25 49 l-25 0 0 -155z m148 -27 c7 -7 12 -21 12 -33 0 -32 -20 -45 -67 -45 l-43 0 0 45 0 45 43 0 c24 0 48 -5 55 -12z"></path><path id="p7La25wd5" d="M8150 7325 l0 -155 28 0 27 0 0 155 0 155 -27 0 -28 0 0 -155z"></path><path id="p149gBa4Xo" d="M8750 7325 l0 -155 76 0 c86 0 107 8 130 52 25 48 -1 128 -43 128 -18 0 -17 4 10 48 51 81 52 82 15 82 -30 0 -36 -6 -66 -60 -23 -42 -39 -60 -52 -60 -18 0 -20 7 -20 60 0 57 -1 60 -25 60 l-25 0 0 -155z m148 -27 c7 -7 12 -21 12 -33 0 -32 -20 -45 -67 -45 l-43 0 0 45 0 45 43 0 c24 0 48 -5 55 -12z"></path><path id="pentRZJVD" d="M4080 6500 l0 -400 120 0 120 0 0 400 0 400 -120 0 -120 0 0 -400z m230 0 l0 -390 -110 0 -110 0 0 390 0 390 110 0 110 0 0 -390z"></path><path id="p5tJng06d" d="M7960 6115 l0 -486 117 3 116 3 90 128 c49 71 87 130 85 133 -3 2 -42 -50 -88 -115 l-83 -119 -51 -6 c-28 -3 -79 -6 -113 -6 l-63 0 0 465 0 465 46 0 c27 0 43 4 39 10 -3 6 -26 10 -51 10 l-44 0 0 -485z"></path><path id="puTUxj5d0" d="M7582 6533 c58 -114 88 -233 73 -291 -5 -22 -4 -25 6 -15 21 21 -2 167 -39 247 -17 36 -34 66 -37 66 -4 0 -5 -3 -3 -7z"></path><path id="p18G0JXbrD" d="M3527 6463 c-12 -11 -8 -505 3 -498 9 6 15 505 6 505 -1 0 -6 -3 -9 -7z"></path><path id="p1hDcyvH1" d="M1906 6017 c3 -410 1 -377 22 -376 10 0 12 3 5 6 -10 4 -13 79 -13 328 0 178 -4 326 -8 329 -4 2 -7 -127 -6 -287z"></path><path id="p4Y4Jskul" d="M2702 5833 l-2 -203 114 0 115 0 27 35 c15 20 24 38 21 41 -3 3 -13 -8 -23 -25 -17 -28 -21 -30 -109 -36 -143 -11 -129 -31 -135 195 l-6 195 -2 -202z"></path><path id="p1CNuGdk0G" d="M3596 4638 c-9 -78 -6 -1346 3 -1393 5 -23 9 282 10 703 0 408 -1 742 -3 742 -2 0 -6 -24 -10 -52z"></path><path id="pNG7d78nJ" d="M4930 3667 c0 -17 28 -43 58 -51 l22 -7 3 -497 c1 -273 1 -609 -1 -746 -1 -138 1 -246 5 -242 5 4 13 22 20 39 l11 32 1 -47 c1 -27 6 -48 11 -48 7 0 10 258 10 754 l0 754 27 7 c37 9 53 23 53 46 0 17 -9 19 -110 19 -85 0 -110 -3 -110 -13z m200 -16 c0 -12 -20 -25 -27 -18 -7 7 6 27 18 27 5 0 9 -4 9 -9z"></path></g></g><g id="l457vh64ZYzZqL8igUj206i" fill="rgb(93,64,44)" style="transform: none;"><g style="transform: none;"><path id="pVjs2WKum" d="M5605 7483 c-35 -7 -79 -48 -72 -67 10 -26 36 -31 51 -10 8 10 29 24 47 31 l34 13 -42 -5 c-23 -3 -44 -1 -47 4 -8 13 19 21 67 21 31 0 38 3 27 10 -15 10 -29 11 -65 3z m-44 -66 c-16 -16 -26 0 -10 19 9 11 15 12 17 4 2 -6 -1 -17 -7 -23z"></path><path id="p16kBOUqGp" d="M2117 7378 c3 -57 7 -105 9 -107 2 -2 4 44 4 102 0 62 -4 107 -10 107 -5 0 -7 -40 -3 -102z"></path><path id="pOU3nsPQu" d="M4311 7403 c0 -43 4 -98 8 -123 7 -35 9 -18 10 78 1 75 -3 122 -9 122 -6 0 -10 -32 -9 -77z"></path><path id="p1A2pSS0Q6" d="M6640 7369 c0 -71 4 -108 10 -104 6 3 10 50 10 105 0 94 1 99 23 103 16 3 13 5 -10 6 l-33 1 0 -111z"></path><path id="pUfXLqElR" d="M6830 7325 c0 -141 2 -155 18 -155 9 0 24 6 32 13 21 16 63 77 58 82 -2 3 -19 -15 -36 -40 -55 -78 -62 -66 -62 99 0 142 0 145 23 149 19 4 18 4 -5 6 l-28 1 0 -155z"></path><path id="p12VZLGHDn" d="M7261 7345 c0 -74 5 -135 9 -135 5 0 10 61 12 135 2 105 0 135 -10 135 -10 0 -13 -31 -11 -135z"></path><path id="p199BGfepC" d="M7510 7325 l0 -155 90 0 c89 0 90 0 90 25 0 14 -5 25 -11 25 -6 0 -8 -9 -4 -20 6 -19 2 -20 -74 -20 l-81 0 0 145 0 144 83 4 82 3 -87 2 -88 2 0 -155z"></path><path id="p9qvrNJg3" d="M7955 7448 c-12 -31 -12 -34 7 -41 14 -5 25 -2 34 10 18 24 17 34 -3 26 -13 -5 -15 -2 -11 15 9 34 -11 26 -27 -10z"></path><path id="pnQzREsm" d="M4994 7427 c28 -38 36 -59 38 -95 1 -46 1 -46 5 -8 5 48 -10 85 -49 122 -29 27 -29 26 6 -19z"></path><path id="prjJCYiQf" d="M9091 7442 c-16 -30 -14 -40 10 -47 14 -5 25 -1 34 11 7 10 28 24 46 30 33 12 33 13 7 13 -15 1 -33 -6 -42 -14 -15 -16 -41 -21 -32 -7 2 4 1 14 -4 21 -6 11 -10 9 -19 -7z"></path><path id="pyyj0nXJo" d="M5269 7340 c-31 -38 -45 -70 -31 -69 20 3 21 -4 5 -32 -30 -51 -48 -54 -61 -11 -6 20 -13 46 -16 57 -2 11 -4 -10 -5 -47 -1 -66 0 -68 24 -68 16 0 31 10 42 28 10 15 20 29 23 32 24 24 31 40 21 58 -8 15 -5 27 15 55 33 49 23 47 -17 -3z"></path><path id="prIZ15Ut" d="M8158 7374 c-5 -4 -8 -52 -8 -106 l0 -98 33 1 c22 1 25 3 10 6 -21 4 -22 10 -25 105 -2 55 -6 96 -10 92z"></path><path id="pOzR1wDpY" d="M2262 7329 c-13 -16 -28 -27 -33 -23 -5 3 -7 10 -4 15 4 5 2 9 -4 9 -6 0 -18 -14 -26 -30 -14 -27 -14 -32 -1 -45 8 -8 17 -15 19 -15 6 0 79 111 75 115 -2 1 -13 -11 -26 -26z"></path><path id="p19ywkqWbl" d="M7025 7264 l0 -94 25 1 c17 1 19 3 8 6 -15 4 -18 17 -18 88 0 46 -3 86 -8 89 -4 2 -7 -38 -7 -90z"></path><path id="pcU9Mzdlo" d="M8623 7325 c0 -22 2 -30 4 -17 2 12 2 30 0 40 -3 9 -5 -1 -4 -23z"></path><path id="pkgBZr8Hr" d="M5570 7323 c-14 -9 -28 -22 -32 -27 -11 -16 -10 -64 2 -87 14 -25 34 -25 27 0 -3 13 0 18 7 15 18 -7 15 38 -3 52 -17 13 -8 44 14 44 8 0 15 5 15 10 0 13 -1 13 -30 -7z"></path><path id="pKlrSev5s" d="M1517 7263 c-13 -12 -7 -22 9 -16 14 5 15 3 5 -15 -9 -18 -9 -22 2 -22 19 0 37 21 37 42 0 12 -8 18 -23 18 -13 0 -27 -3 -30 -7z"></path><path id="p17rlUDBzo" d="M1917 7252 c-19 -20 -23 -37 -7 -27 10 6 33 45 27 45 -2 0 -11 -8 -20 -18z"></path><path id="pAXt8d5Jq" d="M1966 7245 c-3 -8 -11 -12 -19 -10 -7 3 -22 -5 -33 -18 -32 -37 -37 -47 -20 -47 14 0 96 72 96 85 0 11 -18 4 -24 -10z"></path><path id="p5Y2Q8CYm" d="M2631 7228 c-21 -32 -21 -58 -1 -58 21 0 60 41 60 63 0 25 -42 21 -59 -5z"></path></g></g></svg>