<svg version="1.2" xmlns="http://www.w3.org/2000/svg" viewBox="0 0 820 150" width="820" height="150">
   <style>.a{fill:#70533d}</style>
   <path class="a" id="n" d="m10 101.1v-37l24.8-0.3c22-0.3 25.1-0.5 28.6-2.2 9.7-4.8 10.2-18 1-23.7-3.8-2.3-4.5-2.4-29.7-2.7l-25.8-0.3 0.3-11.7 0.3-11.7 23-0.3c23.9-0.3 30.5 0.3 40.2 4 7.1 2.6 15.5 10.4 19 17.6 2.6 5.2 2.8 6.7 2.8 16.7 0 10-0.3 11.5-2.8 16.6-1.5 3.1-4.7 7.5-7.1 9.7-8.8 8.1-17.8 11-37.3 11.9l-13.3 0.6v24.9 24.8h-12-12z"/>
   <path class="a" id="o" d="m99.2 74.5l0.3-63.5h30.3 30.2v12 12h-18-18v14.5 14.5h25.5 25.5v11 11l-25.2 0.2-25.3 0.3-0.3 14.3-0.3 14.2h18.1 18v11.5 11.5h-30.5-30.6z"/>
   <path class="a" id="g" d="m248.4 119.4c-36.2-52.1-41.1-58.9-43.3-59.2-2.1-0.3-2.1-0.3-2.1 23.7v24.1h-12-12v-48.5-48.6l11.7 0.3 11.7 0.3 5.3 7.5c2.9 4.1 16 22.7 29.1 41.3l23.7 33.8 0.3-41.6 0.2-41.6 12.3 0.3 12.2 0.3 0.3 63.3 0.2 63.2h-12.3-12.4z"/>
   <path fill-rule="evenodd" id="a" class="a" d="m317 58h24v80h-24zm-25.3-24.7c-0.4-0.3-0.7-5.2-0.7-10.9 0-9.7 0.1-10.2 2.3-10.8 1.2-0.3 18.3-0.6 38-0.6h35.7v23h-37.3c-20.6 0-37.7-0.3-38-0.7z"/>
   <path class="a" id="t" d="m371 137.5c0-0.4 10.6-28 38.7-100.8 6.9-17.8 10-24.7 11-24.5 1.5 0.3 26.6 62.9 47.7 119.1l2.5 6.8-12.6-0.3-12.5-0.3-6.5-18c-3.6-9.9-8.9-24.7-11.8-33-3-8.5-5.9-15.1-6.6-15.3-0.9-0.2-2.5 3-4.8 9.5-1.9 5.4-7.2 20.5-11.9 33.6l-8.6 23.7h-12.3c-6.8 0-12.3-0.2-12.3-0.5z"/>
   <path class="a" id="n" d="m525.9 136.5c-9.4-1.9-20.1-5.8-25.8-9.4-19.5-12.5-28.9-39-23.6-66.8 2.2-11.9 8-22.6 16.3-30.4 8.1-7.7 13.8-10.9 25.7-14.5 8.3-2.5 10.7-2.7 31.3-3.2l22.2-0.4v11.6 11.6h-17.3c-9.5 0-20 0.5-23.3 1.1-8.3 1.5-17.5 6.1-21.9 11-6.2 6.9-8.8 13.8-9.3 25-0.8 17.7 5.1 30 17.6 36.7 6.8 3.7 17 6.2 25 6.2h5.2v-16-16h-12.5-12.6l0.3-11.7 0.3-11.8 24.3-0.3 24.2-0.2v39.5 39.5l-19.7-0.1c-11.9-0.1-22.4-0.6-26.4-1.4z"/>
   <path fill-rule="evenodd" id="e" class="a" d="m627.9 138c-19.2-3-35.3-14.9-44-32.5-5.4-11-7.2-20.2-6.6-34 1-23.4 10.9-41 29.2-52 7.9-4.7 16-7.1 27-8 18.4-1.4 35.1 5 47.3 17.9 11.9 12.8 17.4 27.1 17.4 45.1 0.1 29.4-15.9 52.9-41.3 61-8.9 2.8-20.7 3.8-29 2.5zm23.4-25c20.3-7.6 29.3-35.1 18.8-57.6-3.9-8.4-9.1-13.8-16.9-17.6-6-3-7.6-3.3-15.2-3.3-7.1 0-9.5 0.5-14.2 2.7-7.9 3.7-12.1 7.1-15.9 12.9-11.9 18.5-8.1 46.6 7.9 58.2 4.6 3.3 11.1 6.1 16.2 7.1 4.6 0.8 13.7-0.3 19.3-2.4zm-19.5-27.5c-6.4-3.6-7.7-12.3-2.7-18 2.8-3.1 3.6-3.5 8.1-3.5 6 0 8.3 1.1 10.3 5 4.2 8-0.1 16.8-8.5 17.6-2.9 0.3-5.5-0.1-7.2-1.1z"/>
   <path class="a" id="p" d="m759.4 98c-15.3-22-28.5-40-29.1-40-1 0-1.3 5.7-1.3 25v25h-12-12v-48.5-48.6l11.7 0.3 11.6 0.3 13.6 19.5c7.6 10.7 20.8 29.6 29.4 41.8l15.7 22.4v-42.1-42.1h12 12v63.5 63.5h-11.8-11.9z"/>
</svg>